<svg xmlns="http://www.w3.org/2000/svg" width="842" height="408" viewBox="0 0 842 408" role="img"><title>T · Web title preview · example data, no request made</title><rect width="100%" height="100%" rx="12" fill="#111620"/><text x="20" y="24" fill="#99a4b6" font-family="monospace" font-size="12">T · Web title preview · example data, no request made</text><g font-family="'Cascadia Mono','DejaVu Sans Mono',monospace" font-size="15" xml:space="preserve"><text x="79" y="104" fill="#60dae0">┌</text><text x="97" y="104" fill="#60dae0">W</text><text x="106" y="104" fill="#60dae0">e</text><text x="115" y="104" fill="#60dae0">b</text><text x="133" y="104" fill="#60dae0">a</text><text x="142" y="104" fill="#60dae0">p</text><text x="151" y="104" fill="#60dae0">p</text><text x="169" y="104" fill="#60dae0">n</text><text x="178" y="104" fill="#60dae0">a</text><text x="187" y="104" fill="#60dae0">m</text><text x="196" y="104" fill="#60dae0">e</text><text x="214" y="104" fill="#60dae0">─</text><text x="223" y="104" fill="#60dae0">─</text><text x="232" y="104" fill="#60dae0">─</text><text x="241" y="104" fill="#60dae0">─</text><text x="250" y="104" fill="#60dae0">─</text><text x="259" y="104" fill="#60dae0">─</text><text x="268" y="104" fill="#60dae0">─</text><text x="277" y="104" fill="#60dae0">─</text><text x="286" y="104" fill="#60dae0">─</text><text x="295" y="104" fill="#60dae0">─</text><text x="304" y="104" fill="#60dae0">─</text><text x="313" y="104" fill="#60dae0">─</text><text x="322" y="104" fill="#60dae0">─</text><text x="331" y="104" fill="#60dae0">─</text><text x="340" y="104" fill="#60dae0">─</text><text x="349" y="104" fill="#60dae0">─</text><text x="358" y="104" fill="#60dae0">─</text><text x="367" y="104" fill="#60dae0">─</text><text x="376" y="104" fill="#60dae0">─</text><text x="385" y="104" fill="#60dae0">─</text><text x="394" y="104" fill="#60dae0">─</text><text x="403" y="104" fill="#60dae0">─</text><text x="412" y="104" fill="#60dae0">─</text><text x="421" y="104" fill="#60dae0">─</text><text x="430" y="104" fill="#60dae0">─</text><text x="439" y="104" fill="#60dae0">─</text><text x="448" y="104" fill="#60dae0">─</text><text x="457" y="104" fill="#60dae0">─</text><text x="466" y="104" fill="#60dae0">─</text><text x="475" y="104" fill="#60dae0">─</text><text x="484" y="104" fill="#60dae0">─</text><text x="493" y="104" fill="#60dae0">─</text><text x="502" y="104" fill="#60dae0">─</text><text x="511" y="104" fill="#60dae0">─</text><text x="520" y="104" fill="#60dae0">─</text><text x="529" y="104" fill="#60dae0">─</text><text x="538" y="104" fill="#60dae0">─</text><text x="547" y="104" fill="#60dae0">─</text><text x="556" y="104" fill="#60dae0">─</text><text x="565" y="104" fill="#60dae0">─</text><text x="574" y="104" fill="#60dae0">─</text><text x="583" y="104" fill="#60dae0">─</text><text x="592" y="104" fill="#60dae0">─</text><text x="601" y="104" fill="#60dae0">─</text><text x="610" y="104" fill="#60dae0">─</text><text x="619" y="104" fill="#60dae0">─</text><text x="628" y="104" fill="#60dae0">─</text><text x="637" y="104" fill="#60dae0">─</text><text x="646" y="104" fill="#60dae0">─</text><text x="655" y="104" fill="#60dae0">─</text><text x="664" y="104" fill="#60dae0">─</text><text x="673" y="104" fill="#60dae0">─</text><text x="682" y="104" fill="#60dae0">─</text><text x="691" y="104" fill="#60dae0">─</text><text x="700" y="104" fill="#60dae0">─</text><text x="709" y="104" fill="#60dae0">─</text><text x="718" y="104" fill="#60dae0">─</text><text x="727" y="104" fill="#60dae0">─</text><text x="736" y="104" fill="#60dae0">─</text><text x="745" y="104" fill="#60dae0">─</text><text x="754" y="104" fill="#60dae0">┐</text><text x="79" y="122" fill="#60dae0">│</text><text x="88" y="122" fill="#eff2f7">S</text><text x="97" y="122" fill="#eff2f7">a</text><text x="106" y="122" fill="#eff2f7">v</text><text x="115" y="122" fill="#eff2f7">e</text><text x="124" y="122" fill="#eff2f7">d</text><text x="142" y="122" fill="#eff2f7">n</text><text x="151" y="122" fill="#eff2f7">a</text><text x="160" y="122" fill="#eff2f7">m</text><text x="169" y="122" fill="#eff2f7">e</text><text x="178" y="122" fill="#eff2f7">:</text><text x="196" y="122" fill="#eff2f7">A</text><text x="205" y="122" fill="#eff2f7">P</text><text x="214" y="122" fill="#eff2f7">I</text><text x="754" y="122" fill="#60dae0">│</text><text x="79" y="140" fill="#60dae0">│</text><text x="88" y="140" fill="#eff2f7">S</text><text x="97" y="140" fill="#eff2f7">o</text><text x="106" y="140" fill="#eff2f7">u</text><text x="115" y="140" fill="#eff2f7">r</text><text x="124" y="140" fill="#eff2f7">c</text><text x="133" y="140" fill="#eff2f7">e</text><text x="142" y="140" fill="#eff2f7">:</text><text x="160" y="140" fill="#eff2f7">h</text><text x="169" y="140" fill="#eff2f7">t</text><text x="178" y="140" fill="#eff2f7">t</text><text x="187" y="140" fill="#eff2f7">p</text><text x="196" y="140" fill="#eff2f7">:</text><text x="205" y="140" fill="#eff2f7">/</text><text x="214" y="140" fill="#eff2f7">/</text><text x="223" y="140" fill="#eff2f7">1</text><text x="232" y="140" fill="#eff2f7">2</text><text x="241" y="140" fill="#eff2f7">7</text><text x="250" y="140" fill="#eff2f7">.</text><text x="259" y="140" fill="#eff2f7">0</text><text x="268" y="140" fill="#eff2f7">.</text><text x="277" y="140" fill="#eff2f7">0</text><text x="286" y="140" fill="#eff2f7">.</text><text x="295" y="140" fill="#eff2f7">1</text><text x="304" y="140" fill="#eff2f7">:</text><text x="313" y="140" fill="#eff2f7">8</text><text x="322" y="140" fill="#eff2f7">0</text><text x="331" y="140" fill="#eff2f7">0</text><text x="340" y="140" fill="#eff2f7">0</text><text x="349" y="140" fill="#eff2f7">/</text><text x="367" y="140" fill="#eff2f7">(</text><text x="376" y="140" fill="#eff2f7">H</text><text x="385" y="140" fill="#eff2f7">T</text><text x="394" y="140" fill="#eff2f7">M</text><text x="403" y="140" fill="#eff2f7">L</text><text x="421" y="140" fill="#eff2f7">p</text><text x="430" y="140" fill="#eff2f7">a</text><text x="439" y="140" fill="#eff2f7">g</text><text x="448" y="140" fill="#eff2f7">e</text><text x="466" y="140" fill="#eff2f7">t</text><text x="475" y="140" fill="#eff2f7">i</text><text x="484" y="140" fill="#eff2f7">t</text><text x="493" y="140" fill="#eff2f7">l</text><text x="502" y="140" fill="#eff2f7">e</text><text x="511" y="140" fill="#eff2f7">)</text><text x="754" y="140" fill="#60dae0">│</text><text x="79" y="158" fill="#60dae0">│</text><text x="754" y="158" fill="#60dae0">│</text><text x="79" y="176" fill="#60dae0">│</text><text x="88" y="176" fill="#eff2f7">W</text><text x="97" y="176" fill="#eff2f7">e</text><text x="106" y="176" fill="#eff2f7">b</text><text x="124" y="176" fill="#eff2f7">p</text><text x="133" y="176" fill="#eff2f7">a</text><text x="142" y="176" fill="#eff2f7">g</text><text x="151" y="176" fill="#eff2f7">e</text><text x="169" y="176" fill="#eff2f7">t</text><text x="178" y="176" fill="#eff2f7">i</text><text x="187" y="176" fill="#eff2f7">t</text><text x="196" y="176" fill="#eff2f7">l</text><text x="205" y="176" fill="#eff2f7">e</text><text x="214" y="176" fill="#eff2f7">:</text><text x="232" y="176" fill="#eff2f7">P</text><text x="241" y="176" fill="#eff2f7">r</text><text x="250" y="176" fill="#eff2f7">o</text><text x="259" y="176" fill="#eff2f7">j</text><text x="268" y="176" fill="#eff2f7">e</text><text x="277" y="176" fill="#eff2f7">c</text><text x="286" y="176" fill="#eff2f7">t</text><text x="304" y="176" fill="#eff2f7">d</text><text x="313" y="176" fill="#eff2f7">a</text><text x="322" y="176" fill="#eff2f7">s</text><text x="331" y="176" fill="#eff2f7">h</text><text x="340" y="176" fill="#eff2f7">b</text><text x="349" y="176" fill="#eff2f7">o</text><text x="358" y="176" fill="#eff2f7">a</text><text x="367" y="176" fill="#eff2f7">r</text><text x="376" y="176" fill="#eff2f7">d</text><text x="754" y="176" fill="#60dae0">│</text><text x="79" y="194" fill="#60dae0">│</text><text x="754" y="194" fill="#60dae0">│</text><text x="79" y="212" fill="#60dae0">│</text><text x="88" y="212" fill="#eff2f7">E</text><text x="97" y="212" fill="#eff2f7">n</text><text x="106" y="212" fill="#eff2f7">t</text><text x="115" y="212" fill="#eff2f7">e</text><text x="124" y="212" fill="#eff2f7">r</text><text x="133" y="212" fill="#eff2f7">:</text><text x="151" y="212" fill="#eff2f7">k</text><text x="160" y="212" fill="#eff2f7">e</text><text x="169" y="212" fill="#eff2f7">e</text><text x="178" y="212" fill="#eff2f7">p</text><text x="196" y="212" fill="#eff2f7">s</text><text x="205" y="212" fill="#eff2f7">a</text><text x="214" y="212" fill="#eff2f7">v</text><text x="223" y="212" fill="#eff2f7">e</text><text x="232" y="212" fill="#eff2f7">d</text><text x="250" y="212" fill="#eff2f7">n</text><text x="259" y="212" fill="#eff2f7">a</text><text x="268" y="212" fill="#eff2f7">m</text><text x="277" y="212" fill="#eff2f7">e</text><text x="322" y="212" fill="#eff2f7">U</text><text x="331" y="212" fill="#eff2f7">:</text><text x="349" y="212" fill="#eff2f7">u</text><text x="358" y="212" fill="#eff2f7">s</text><text x="367" y="212" fill="#eff2f7">e</text><text x="385" y="212" fill="#eff2f7">w</text><text x="394" y="212" fill="#eff2f7">e</text><text x="403" y="212" fill="#eff2f7">b</text><text x="421" y="212" fill="#eff2f7">t</text><text x="430" y="212" fill="#eff2f7">i</text><text x="439" y="212" fill="#eff2f7">t</text><text x="448" y="212" fill="#eff2f7">l</text><text x="457" y="212" fill="#eff2f7">e</text><text x="475" y="212" fill="#eff2f7">i</text><text x="484" y="212" fill="#eff2f7">n</text><text x="502" y="212" fill="#eff2f7">t</text><text x="511" y="212" fill="#eff2f7">h</text><text x="520" y="212" fill="#eff2f7">i</text><text x="529" y="212" fill="#eff2f7">s</text><text x="547" y="212" fill="#eff2f7">v</text><text x="556" y="212" fill="#eff2f7">i</text><text x="565" y="212" fill="#eff2f7">e</text><text x="574" y="212" fill="#eff2f7">w</text><text x="754" y="212" fill="#60dae0">│</text><text x="79" y="230" fill="#60dae0">│</text><text x="754" y="230" fill="#60dae0">│</text><text x="79" y="248" fill="#60dae0">│</text><text x="88" y="248" fill="#eff2f7">T</text><text x="97" y="248" fill="#eff2f7">h</text><text x="106" y="248" fill="#eff2f7">i</text><text x="115" y="248" fill="#eff2f7">s</text><text x="133" y="248" fill="#eff2f7">d</text><text x="142" y="248" fill="#eff2f7">i</text><text x="151" y="248" fill="#eff2f7">s</text><text x="160" y="248" fill="#eff2f7">p</text><text x="169" y="248" fill="#eff2f7">l</text><text x="178" y="248" fill="#eff2f7">a</text><text x="187" y="248" fill="#eff2f7">y</text><text x="205" y="248" fill="#eff2f7">c</text><text x="214" y="248" fill="#eff2f7">h</text><text x="223" y="248" fill="#eff2f7">o</text><text x="232" y="248" fill="#eff2f7">i</text><text x="241" y="248" fill="#eff2f7">c</text><text x="250" y="248" fill="#eff2f7">e</text><text x="268" y="248" fill="#eff2f7">i</text><text x="277" y="248" fill="#eff2f7">s</text><text x="295" y="248" fill="#eff2f7">n</text><text x="304" y="248" fill="#eff2f7">o</text><text x="313" y="248" fill="#eff2f7">t</text><text x="331" y="248" fill="#eff2f7">s</text><text x="340" y="248" fill="#eff2f7">a</text><text x="349" y="248" fill="#eff2f7">v</text><text x="358" y="248" fill="#eff2f7">e</text><text x="367" y="248" fill="#eff2f7">d</text><text x="376" y="248" fill="#eff2f7">.</text><text x="394" y="248" fill="#eff2f7">E</text><text x="412" y="248" fill="#eff2f7">r</text><text x="421" y="248" fill="#eff2f7">e</text><text x="430" y="248" fill="#eff2f7">s</text><text x="439" y="248" fill="#eff2f7">t</text><text x="448" y="248" fill="#eff2f7">o</text><text x="457" y="248" fill="#eff2f7">r</text><text x="466" y="248" fill="#eff2f7">e</text><text x="475" y="248" fill="#eff2f7">s</text><text x="493" y="248" fill="#eff2f7">t</text><text x="502" y="248" fill="#eff2f7">h</text><text x="511" y="248" fill="#eff2f7">e</text><text x="529" y="248" fill="#eff2f7">s</text><text x="538" y="248" fill="#eff2f7">a</text><text x="547" y="248" fill="#eff2f7">v</text><text x="556" y="248" fill="#eff2f7">e</text><text x="565" y="248" fill="#eff2f7">d</text><text x="583" y="248" fill="#eff2f7">n</text><text x="592" y="248" fill="#eff2f7">a</text><text x="601" y="248" fill="#eff2f7">m</text><text x="610" y="248" fill="#eff2f7">e</text><text x="619" y="248" fill="#eff2f7">.</text><text x="754" y="248" fill="#60dae0">│</text><text x="79" y="266" fill="#60dae0">│</text><text x="88" y="266" fill="#eff2f7">E</text><text x="97" y="266" fill="#eff2f7">s</text><text x="106" y="266" fill="#eff2f7">c</text><text x="124" y="266" fill="#eff2f7">c</text><text x="133" y="266" fill="#eff2f7">a</text><text x="142" y="266" fill="#eff2f7">n</text><text x="151" y="266" fill="#eff2f7">c</text><text x="160" y="266" fill="#eff2f7">e</text><text x="169" y="266" fill="#eff2f7">l</text><text x="178" y="266" fill="#eff2f7">s</text><text x="187" y="266" fill="#eff2f7">.</text><text x="205" y="266" fill="#eff2f7">N</text><text x="214" y="266" fill="#eff2f7">o</text><text x="232" y="266" fill="#eff2f7">f</text><text x="241" y="266" fill="#eff2f7">a</text><text x="250" y="266" fill="#eff2f7">v</text><text x="259" y="266" fill="#eff2f7">o</text><text x="268" y="266" fill="#eff2f7">r</text><text x="277" y="266" fill="#eff2f7">i</text><text x="286" y="266" fill="#eff2f7">t</text><text x="295" y="266" fill="#eff2f7">e</text><text x="313" y="266" fill="#eff2f7">o</text><text x="322" y="266" fill="#eff2f7">r</text><text x="340" y="266" fill="#eff2f7">f</text><text x="349" y="266" fill="#eff2f7">o</text><text x="358" y="266" fill="#eff2f7">r</text><text x="367" y="266" fill="#eff2f7">w</text><text x="376" y="266" fill="#eff2f7">a</text><text x="385" y="266" fill="#eff2f7">r</text><text x="394" y="266" fill="#eff2f7">d</text><text x="412" y="266" fill="#eff2f7">i</text><text x="421" y="266" fill="#eff2f7">s</text><text x="439" y="266" fill="#eff2f7">c</text><text x="448" y="266" fill="#eff2f7">h</text><text x="457" y="266" fill="#eff2f7">a</text><text x="466" y="266" fill="#eff2f7">n</text><text x="475" y="266" fill="#eff2f7">g</text><text x="484" y="266" fill="#eff2f7">e</text><text x="493" y="266" fill="#eff2f7">d</text><text x="502" y="266" fill="#eff2f7">.</text><text x="754" y="266" fill="#60dae0">│</text><text x="79" y="284" fill="#60dae0">│</text><text x="754" y="284" fill="#60dae0">│</text><text x="79" y="302" fill="#60dae0">│</text><text x="754" y="302" fill="#60dae0">│</text><text x="79" y="320" fill="#60dae0">│</text><text x="754" y="320" fill="#60dae0">│</text><text x="79" y="338" fill="#60dae0">└</text><text x="88" y="338" fill="#60dae0">─</text><text x="97" y="338" fill="#60dae0">─</text><text x="106" y="338" fill="#60dae0">─</text><text x="115" y="338" fill="#60dae0">─</text><text x="124" y="338" fill="#60dae0">─</text><text x="133" y="338" fill="#60dae0">─</text><text x="142" y="338" fill="#60dae0">─</text><text x="151" y="338" fill="#60dae0">─</text><text x="160" y="338" fill="#60dae0">─</text><text x="169" y="338" fill="#60dae0">─</text><text x="178" y="338" fill="#60dae0">─</text><text x="187" y="338" fill="#60dae0">─</text><text x="196" y="338" fill="#60dae0">─</text><text x="205" y="338" fill="#60dae0">─</text><text x="214" y="338" fill="#60dae0">─</text><text x="223" y="338" fill="#60dae0">─</text><text x="232" y="338" fill="#60dae0">─</text><text x="241" y="338" fill="#60dae0">─</text><text x="250" y="338" fill="#60dae0">─</text><text x="259" y="338" fill="#60dae0">─</text><text x="268" y="338" fill="#60dae0">─</text><text x="277" y="338" fill="#60dae0">─</text><text x="286" y="338" fill="#60dae0">─</text><text x="295" y="338" fill="#60dae0">─</text><text x="304" y="338" fill="#60dae0">─</text><text x="313" y="338" fill="#60dae0">─</text><text x="322" y="338" fill="#60dae0">─</text><text x="331" y="338" fill="#60dae0">─</text><text x="340" y="338" fill="#60dae0">─</text><text x="349" y="338" fill="#60dae0">─</text><text x="358" y="338" fill="#60dae0">─</text><text x="367" y="338" fill="#60dae0">─</text><text x="376" y="338" fill="#60dae0">─</text><text x="385" y="338" fill="#60dae0">─</text><text x="394" y="338" fill="#60dae0">─</text><text x="403" y="338" fill="#60dae0">─</text><text x="412" y="338" fill="#60dae0">─</text><text x="421" y="338" fill="#60dae0">─</text><text x="430" y="338" fill="#60dae0">─</text><text x="439" y="338" fill="#60dae0">─</text><text x="448" y="338" fill="#60dae0">─</text><text x="457" y="338" fill="#60dae0">─</text><text x="466" y="338" fill="#60dae0">─</text><text x="475" y="338" fill="#60dae0">─</text><text x="484" y="338" fill="#60dae0">─</text><text x="493" y="338" fill="#60dae0">─</text><text x="502" y="338" fill="#60dae0">─</text><text x="511" y="338" fill="#60dae0">─</text><text x="520" y="338" fill="#60dae0">─</text><text x="529" y="338" fill="#60dae0">─</text><text x="538" y="338" fill="#60dae0">─</text><text x="547" y="338" fill="#60dae0">─</text><text x="556" y="338" fill="#60dae0">─</text><text x="565" y="338" fill="#60dae0">─</text><text x="574" y="338" fill="#60dae0">─</text><text x="583" y="338" fill="#60dae0">─</text><text x="592" y="338" fill="#60dae0">─</text><text x="601" y="338" fill="#60dae0">─</text><text x="610" y="338" fill="#60dae0">─</text><text x="619" y="338" fill="#60dae0">─</text><text x="628" y="338" fill="#60dae0">─</text><text x="637" y="338" fill="#60dae0">─</text><text x="646" y="338" fill="#60dae0">─</text><text x="655" y="338" fill="#60dae0">─</text><text x="664" y="338" fill="#60dae0">─</text><text x="673" y="338" fill="#60dae0">─</text><text x="682" y="338" fill="#60dae0">─</text><text x="691" y="338" fill="#60dae0">─</text><text x="700" y="338" fill="#60dae0">─</text><text x="709" y="338" fill="#60dae0">─</text><text x="718" y="338" fill="#60dae0">─</text><text x="727" y="338" fill="#60dae0">─</text><text x="736" y="338" fill="#60dae0">─</text><text x="745" y="338" fill="#60dae0">─</text><text x="754" y="338" fill="#60dae0">┘</text></g></svg>
